<svg version="1.2" xmlns="http://www.w3.org/2000/svg" viewBox="0 0 114 114" width="114" height="114"><style>.a{stroke:#f33;stroke-width:3}.b{stroke:#d78700;stroke-width:3}.c{fill:#fff;stroke:#f33;stroke-width:3}</style><path class="a" d="m35.7-19.5v167.7"/><path class="a" d="m33.7-19.5v167.7"/><path class="a" d="m37.7-19.5v167.7"/><path class="b" d="m78.5-9v94"/><path class="b" d="m77.5-9v94"/><path class="b" d="m75.5-9v94"/><path class="c" d="m35.7 52.1c-5.9 0-10.7-4.8-10.7-10.7 0-5.9 4.8-10.7 10.7-10.7 5.9 0 10.7 4.8 10.7 10.7 0 5.9-4.8 10.7-10.7 10.7z"/><path class="b" d="m77.2 72.3c-5.9 0-10.7-4.8-10.7-10.7 0-5.9 4.8-10.7 10.7-10.7 5.9 0 10.7 4.8 10.7 10.7 0 5.9-4.8 10.7-10.7 10.7z"/><path class="b" d="m77.2 28.4c-5.9 0-10.7-4.8-10.7-10.7 0-5.9 4.8-10.7 10.7-10.7 5.9 0 10.7 4.8 10.7 10.7 0 5.9-4.8 10.7-10.7 10.7z"/><path class="b" d="m78.2 83.5l-26.7 10.7"/><path class="b" d="m79.2 84.5l-26.7 10.7"/><path class="b" d="m78.2 81.5l-26.7 10.7"/><path class="c" d="m35.7 105.8c-5.9 0-10.7-4.8-10.7-10.7 0-6 4.8-10.7 10.7-10.7 5.9 0 10.7 4.7 10.7 10.7 0 5.9-4.8 10.7-10.7 10.7z"/></svg>